/* XPM */
static char * close_active_xpm[] = {
"24 24 33 1",
" 	c None",
".	c #2D2D2D",
"+	c #3B2C2D",
"@	c #802A31",
"#	c #B83038",
"$	c #D4353F",
"%	c #D3353F",
"&	c #B72F39",
"*	c #7F2A30",
"=	c #392C2D",
"-	c #612B2F",
";	c #D3353E",
">	c #ED4950",
",	c #F14F55",
"'	c #ED4850",
")	c #D0333E",
"!	c #5E2B2F",
"~	c #622A2F",
"{	c #E13A44",
"]	c #DF3A44",
"^	c #3C2C2E",
"/	c #D3343E",
"(	c #F15056",
"_	c #D1343E",
":	c #812A31",
"<	c #7E2A30",
"[	c #B93039",
"}	c #B52F38",
"|	c #D63540",
"1	c #D2353F",
"2	c #3A2C2D",
"3	c #D2343F",
"4	c #382C2D",
"........................",
"........................",
"........................",
"........................",
"........................",
".......+@#$%&*=.........",
"......-;>,,,,')!........",
".....~{,,,,,,,,]!.......",
"....^/,,((,,,,((_=......",
"....:>,,(((,,((('<......",
"....[,,,,((((((,,}......",
"....|,,,,,((((,,,1......",
"....|,,,,,((((,,,1......",
"....[,,,,((((((,,}......",
"....:>,,(((,,((('<......",
"....23,,((,,,,(()4......",
".....~{,,,,,,,,]!.......",
"......-;>,,,,')!........",
".......+@#$%&*=.........",
"........................",
"........................",
"........................",
"........................",
"........................"};
