/* XPM */
static char * hide_active_xpm[] = {
"24 24 27 1",
" 	c None",
".	c #2D2D2D",
"+	c #3B362A",
"@	c #82651E",
"#	c #BC8E1D",
"$	c #D9A41E",
"%	c #82641E",
"&	c #3A352A",
"*	c #624F24",
"=	c #D7A21E",
"-	c #F5BF2F",
";	c #F9C535",
">	c #D6A11D",
",	c #614F24",
"'	c #625024",
")	c #E7AE23",
"!	c #F9C435",
"~	c #D8A21E",
"{	c #83651E",
"]	c #81641E",
"^	c #BD8E1D",
"/	c #BB8D1D",
"(	c #DBA41E",
"_	c #F9C636",
":	c #D9A41F",
"<	c #D7A11D",
"[	c #39352A",
"........................",
"........................",
"........................",
"........................",
"........................",
".......+@#$$#%&.........",
"......*=-;;;;->,........",
".....')!;;;;;;!),.......",
"....+~!;;;;;;;;!~+......",
"....{-;;;;;;;;;;-]......",
"....^;;;;;;;;;;;;/......",
"....(;;;________;:......",
"....(;;;________;:......",
"....^;;;;;;;;;;;;/......",
"....{-;;;;;;;;;;-]......",
"....&<!;;;;;;;;!>[......",
".....')!;;;;;;!),.......",
"......*=-;;;;->,........",
".......+@#$$#%&.........",
"........................",
"........................",
"........................",
"........................",
"........................"};
