/* XPM */
static char * maximize_active_xpm[] = {
"24 24 30 1",
" 	c None",
".	c #2D2D2D",
"+	c #2B382B",
"@	c #1F7626",
"#	c #1FA929",
"$	c #21C52D",
"%	c #207625",
"&	c #2A382B",
"*	c #255828",
"=	c #1FC32C",
"-	c #32E341",
";	c #38E948",
">	c #245B28",
",	c #26D132",
"'	c #26D233",
")	c #245A27",
"!	c #20C22C",
"~	c #39E949",
"{	c #20C42D",
"]	c #2B3A2C",
"^	c #207426",
"/	c #32E442",
"(	c #207825",
"_	c #1FA729",
":	c #20AC28",
"<	c #21C72E",
"[	c #2A372B",
"}	c #20C12B",
"|	c #20C32C",
"1	c #2B392B",
"........................",
"........................",
"........................",
"........................",
"........................",
".......+@#$$#%&.........",
"......*=-;;;;-=>........",
".....*,;;;;;;;;').......",
"....&!;;~~~~~~~~{]......",
"....^-;;~~~~~~~~/(......",
"...._;;;~~;;;;~~;:......",
"....{;;;~~;;;;~~;<......",
"....{;;;~~;;;;~~;<......",
"...._;;;~~;;;;~~;:......",
"....^-;;~~~~~~~~/(......",
"....[};;~~~~~~~~|1......",
".....*,;;;;;;;;').......",
"......*=-;;;;-=>........",
".......+@#$$#%&.........",
"........................",
"........................",
"........................",
"........................",
"........................"};
