/* XPM */
static char * maximize_inactive_xpm[] = {
"24 24 25 1",
" 	c None",
".	c #2D2D2D",
"+	c #383838",
"@	c #707070",
"#	c #9C9C9C",
"$	c #B2B2B2",
"%	c #9B9B9B",
"&	c #6F6F6F",
"*	c #363636",
"=	c #575757",
"-	c #B0B0B0",
";	c #C4C4C4",
">	c #C7C7C7",
",	c #AFAFAF",
"'	c #555555",
")	c #BBBBBB",
"!	c #C6C6C6",
"~	c #545454",
"{	c #393939",
"]	c #373737",
"^	c #717171",
"/	c #6E6E6E",
"(	c #9A9A9A",
"_	c #B3B3B3",
":	c #AEAEAE",
"........................",
"........................",
"........................",
"........................",
"........................",
".......+@#$$%&*.........",
"......=-;>>>>;,'........",
".....=)>>>>>>>!)~.......",
"....{$>>>>>>>>>>-]......",
"....^;>>>>>>>>>>;/......",
"....#>>>>>>>>>>>>(......",
"...._>>>>>>>>>>>>-......",
"...._>>>>>>>>>>>>-......",
"....#>>>>>>>>>>>>(......",
"....^;>>>>>>>>>>;/......",
"....+->>>>>>>>>!:*......",
".....=)>>>>>>>!)~.......",
"......=-;>>>>;,'........",
".......+@#$$%@*.........",
"........................",
"........................",
"........................",
"........................",
"........................"};
